<?xml version="1.0" standalone="no"?>
<!DOCTYPE svg PUBLIC "-//W3C//DTD SVG 20010904//EN"
 "http://www.w3.org/TR/2001/REC-SVG-20010904/DTD/svg10.dtd">
<svg version="1.0" xmlns="http://www.w3.org/2000/svg"
 width="260.000000pt" height="260.000000pt" viewBox="0 0 260.000000 260.000000"
 preserveAspectRatio="xMidYMid meet">
<metadata>
Created by potrace 1.11, written by Peter Selinger 2001-2013
</metadata>
<g transform="translate(0.000000,260.000000) scale(0.100000,-0.100000)"
fill="#000000" stroke="none">
<path d="M0 1300 l0 -1300 1300 0 1300 0 0 1300 0 1300 -1300 0 -1300 0 0
-1300z m324 1103 c3 -65 9 -198 12 -296 4 -98 10 -174 14 -170 4 4 67 137 140
296 l133 287 59 0 58 0 0 -32 c0 -52 38 -549 42 -553 2 -2 62 129 133 291
l129 294 52 0 53 0 -78 -167 c-42 -93 -119 -259 -171 -370 l-93 -203 -52 0
-52 0 -6 58 c-4 31 -14 158 -22 282 -9 124 -19 233 -23 242 -5 11 -51 -78
-147 -283 l-140 -299 -52 0 -51 0 -6 63 c-3 34 -13 177 -21 317 -8 140 -17
279 -20 308 l-5 52 53 0 54 0 7 -117z m1450 90 c-15 -69 5 -63 -220 -63 -112
0 -204 -1 -204 -3 0 -1 -9 -49 -20 -107 -11 -58 -20 -106 -20 -107 0 -2 86 -3
190 -3 l191 0 -7 -37 c-4 -21 -9 -41 -11 -45 -2 -5 -89 -8 -193 -8 l-189 0
-10 -52 c-5 -29 -16 -86 -24 -125 l-14 -73 203 0 204 0 0 -22 c0 -13 -3 -33
-6 -45 l-6 -23 -260 0 c-204 0 -259 3 -256 13 3 6 36 173 74 370 l68 357 258
0 258 0 -6 -27z m578 17 c115 -32 128 -192 23 -289 -24 -22 -50 -41 -57 -41
-7 0 2 -8 21 -17 54 -27 73 -67 68 -141 -8 -107 -88 -202 -195 -232 -56 -15
-435 -13 -430 3 3 6 36 173 74 370 l69 357 195 0 c107 0 212 -5 232 -10z
m-1343 -1204 c39 -200 71 -367 71 -370 0 -3 -24 -6 -54 -6 -62 0 -58 -6 -76
110 -19 122 0 110 -173 110 l-152 0 -60 -108 -60 -107 -54 -3 c-32 -2 -52 1
-50 7 2 5 98 172 214 370 l210 361 56 0 56 0 72 -364z m776 338 c83 -43 101
-136 49 -242 -21 -41 -42 -66 -76 -88 -46 -31 -46 -32 -23 -42 38 -18 50 -75
37 -181 -6 -51 -7 -103 -2 -124 l8 -37 -59 0 -60 0 7 130 c7 127 6 131 -16
155 -23 24 -27 25 -166 25 l-142 0 -29 -152 -28 -153 -53 -3 c-28 -2 -52 -2
-52 0 0 2 31 165 70 363 38 198 70 364 70 368 0 5 96 7 213 5 192 -3 216 -5
252 -24z m765 4 c0 -13 -3 -33 -6 -45 -6 -22 -10 -23 -128 -23 l-122 0 -58
-302 c-32 -167 -60 -313 -63 -325 -5 -20 -12 -23 -54 -23 -36 0 -49 4 -49 15
0 13 105 563 117 613 5 22 5 22 -116 22 -131 0 -127 -2 -115 59 l7 31 293 0
294 0 0 -22z m-1876 -875 c-3 -21 -9 -41 -13 -45 -4 -4 -92 -9 -196 -10 l-190
-3 -17 -90 c-9 -49 -17 -98 -17 -107 -1 -16 13 -18 165 -18 l167 0 -7 -31 c-3
-17 -6 -38 -6 -45 0 -11 -36 -14 -172 -16 l-172 -3 -28 -145 c-40 -210 -30
-190 -88 -190 -28 0 -50 4 -50 10 0 10 127 668 137 708 l5 22 245 0 244 0 -7
-37z m400 20 c9 -32 136 -688 136 -706 0 -14 -9 -17 -54 -17 l-54 0 -11 63
c-6 34 -14 83 -17 110 l-7 47 -156 0 -156 0 -60 -108 -60 -107 -53 -3 c-28 -2
-52 0 -52 3 0 4 96 170 212 371 l213 364 57 0 c45 0 58 -3 62 -17z m672 0 c-3
-10 -35 -173 -71 -363 -37 -189 -69 -348 -71 -352 -3 -4 -25 -8 -50 -8 -41 0
-44 2 -39 23 7 32 95 488 95 493 0 2 -40 4 -88 4 -49 0 -91 2 -94 5 -3 3 -2
20 1 37 6 30 11 33 66 43 33 6 74 19 92 28 33 17 83 75 83 95 0 7 17 12 41 12
34 0 40 -3 35 -17z m579 6 c40 -11 88 -48 106 -81 68 -125 -20 -487 -143 -593
-138 -118 -377 -60 -366 90 3 39 4 40 45 43 41 3 42 2 49 -33 13 -70 90 -101
167 -67 53 24 97 78 127 158 30 81 27 90 -17 56 -73 -57 -166 -68 -243 -29
-85 42 -113 154 -69 273 53 142 203 221 344 183z"/>
<path d="M2004 2393 c-3 -21 -12 -69 -20 -106 -8 -38 -14 -70 -14 -73 0 -2 56
-4 125 -4 153 0 196 14 225 71 29 55 26 103 -6 128 -24 19 -40 21 -165 21
l-138 0 -7 -37z"/>
<path d="M1941 2068 c-5 -29 -16 -86 -24 -125 l-14 -73 139 0 c95 0 149 4 172
14 64 27 110 118 87 173 -21 51 -43 58 -203 61 l-146 4 -11 -54z"/>
<path d="M767 1402 l-87 -157 112 -3 c61 -1 113 0 116 2 6 6 -38 285 -47 303
-4 7 -44 -56 -94 -145z"/>
<path d="M1406 1563 c-3 -10 -12 -58 -21 -108 -9 -49 -19 -98 -22 -108 -5 -18
3 -19 139 -15 168 4 198 15 236 88 27 53 24 102 -8 134 -19 19 -35 21 -169 24
-137 3 -150 2 -155 -15z"/>
<path d="M898 542 l-88 -157 116 -3 c64 -1 118 -1 119 0 5 5 -49 318 -55 318
-3 0 -44 -71 -92 -158z"/>
<path d="M2149 697 c-59 -40 -99 -137 -84 -206 8 -36 47 -77 81 -85 61 -16
148 34 184 105 22 42 26 118 9 152 -31 61 -125 78 -190 34z"/>
</g>
</svg>
